<svg width="36" height="45" viewBox="0 0 36 45" fill="none" xmlns="http://www.w3.org/2000/svg">
<path d="M12.8486 1.49134C12.8487 1.20087 12.9349 0.916947 13.0963 0.675459C13.2578 0.43397 13.4872 0.245758 13.7555 0.134613C14.0239 0.0234667 14.3192 -0.00562358 14.6041 0.0510186C14.889 0.107661 15.1507 0.247493 15.3561 0.45284L17.0998 2.19653C17.2504 2.3471 17.4547 2.43169 17.6677 2.43169C17.8806 2.43169 18.0849 2.3471 18.2355 2.19653L19.9792 0.45284C20.1145 0.311615 20.2766 0.198824 20.456 0.121083C20.6355 0.0433422 20.8287 0.00221543 21.0242 0.000115234C21.2198 -0.00198497 21.4138 0.0349836 21.5949 0.108853C21.7759 0.182722 21.9404 0.292005 22.0787 0.430292C22.217 0.568579 22.3263 0.733086 22.4002 0.914166C22.474 1.09525 22.511 1.28925 22.5089 1.48481C22.5068 1.68036 22.4657 1.87353 22.3879 2.05298C22.3102 2.23244 22.1974 2.39456 22.0562 2.52984L17.6677 6.91838L13.2791 2.52984C13.1422 2.39383 13.0337 2.232 12.9598 2.05374C12.8859 1.87547 12.8481 1.68432 12.8486 1.49134ZM4.8169 11.2668C4.8169 10.6277 5.07075 10.0148 5.52263 9.56297C5.9745 9.1111 6.58737 8.85724 7.22641 8.85724H23.2899C24.2043 8.85617 25.0911 8.54356 25.804 7.97094C26.5169 7.39831 27.0135 6.59986 27.2118 5.70719C28.2 5.88382 29.0862 6.42419 29.6959 7.22181C30.3055 8.01942 30.5942 9.01644 30.5052 10.0164C30.4163 11.0163 29.956 11.9467 29.2151 12.6241C28.4742 13.3016 27.5065 13.6769 26.5026 13.6763H7.22641C6.58737 13.6763 5.9745 13.4224 5.52263 12.9705C5.07075 12.5187 4.8169 11.9058 4.8169 11.2668ZM4.01372 15.2826H31.3216C31.9606 15.2826 32.5735 15.5365 33.0254 15.9883C33.4772 16.4402 33.7311 17.0531 33.7311 17.6921C33.7311 18.3312 33.4772 18.944 33.0254 19.3959C32.5735 19.8478 31.9606 20.1017 31.3216 20.1017H4.01372C3.37468 20.1017 2.76181 19.8478 2.30994 19.3959C1.85806 18.944 1.60421 18.3312 1.60421 17.6921C1.60421 17.0531 1.85806 16.4402 2.30994 15.9883C2.76181 15.5365 3.37468 15.2826 4.01372 15.2826ZM1.66364 27.6033L3.21055 26.0564L4.84501 27.6916L6.35015 45H4.68919L1.66364 27.6033ZM7.96292 45L6.45215 27.6338L8.02959 26.0564L9.65039 27.6772L10.4038 45H7.96292ZM14.455 45H12.0109L11.2567 27.6515L12.8486 26.0564L14.455 27.6627V45ZM16.0613 45V27.6627L17.6677 26.0564L19.274 27.6627V45H16.0613ZM23.3244 45H20.8803V27.6627L22.4867 26.0564L24.0786 27.6515L23.3244 45ZM24.9307 45L25.6841 27.6772L27.3057 26.0564L28.8832 27.6338L27.3724 45H24.9307ZM30.6453 45H28.9852L30.4903 27.6916L32.1248 26.0564L33.6717 27.6033L30.6453 45ZM34.3736 26.0363L32.1248 23.7874L29.7152 26.1969L27.3057 23.7874L24.8962 26.1969L22.4867 23.7874L20.0772 26.1969L17.6677 23.7874L15.2581 26.1969L12.8486 23.7874L10.4391 26.1969L8.02959 23.7874L5.62007 26.1969L3.21055 23.7874L0.961667 26.0363C0.557773 25.7333 0.259496 25.3109 0.109122 24.8289C-0.0412514 24.3469 -0.0360927 23.8298 0.123867 23.3509C0.283827 22.872 0.590472 22.4556 1.00033 22.1607C1.41019 21.8658 1.90247 21.7074 2.40738 21.708H32.9279C33.4328 21.7074 33.9251 21.8658 34.335 22.1607C34.7448 22.4556 35.0515 22.872 35.2114 23.3509C35.3714 23.8298 35.3766 24.3469 35.2262 24.8289C35.0758 25.3109 34.7775 25.7333 34.3736 26.0363Z" fill="#01AAC1"/>
</svg>
